<svg width="20" height="16" viewBox="0 0 20 16" fill="none" xmlns="http://www.w3.org/2000/svg">
  <path d="M9.17587 14.786C9.26761 14.9161 9.39036 15.0225 9.53356 15.096C9.67675 15.1695 9.8361 15.2079 9.99787 15.2079C10.1596 15.2079 10.319 15.1695 10.4622 15.096C10.6054 15.0225 10.7281 14.9161 10.8199 14.786L19.8199 2.08923C19.924 1.94278 19.9851 1.77125 19.9965 1.59328C20.0079 1.4153 19.9691 1.23769 19.8844 1.07973C19.7996 0.921772 19.6722 0.789515 19.5159 0.697326C19.3596 0.605138 19.1805 0.556544 18.9979 0.556825H0.997862C0.815705 0.55756 0.6372 0.606779 0.481542 0.699188C0.325885 0.791597 0.198964 0.923701 0.11443 1.08129C0.0298962 1.23888 -0.00905317 1.416 0.0017708 1.59359C0.0125948 1.77119 0.0727825 1.94254 0.175862 2.08923L9.17587 14.786Z" fill="#192834"/>
</svg>
