<svg width="21" height="19" viewBox="0 0 21 19" fill="none" xmlns="http://www.w3.org/2000/svg">
  <path d="M18.3094 7.32C17.3906 3.875 14.2406 1.405 10.6313 1.405C7.08751 1.405 4.06876 3.615 3.01876 6.995L2.10001 6.735C3.28126 2.96499 6.69376 0.494995 10.6313 0.494995C14.7 0.494995 18.2438 3.225 19.2938 7.125L18.3094 7.32Z" fill="#FF6600"/>
  <path d="M2.03437 8.035L0.524994 4.2L1.44374 3.875L2.55937 6.735L5.38124 5.435L5.77499 6.345L2.03437 8.035Z" fill="#FF6600"/>
  <path d="M10.3687 18.37C6.29999 18.37 2.75624 15.64 1.70624 11.74L2.69061 11.48C3.60936 14.925 6.75936 17.395 10.3687 17.395C13.9125 17.395 16.9312 15.185 17.9812 11.805L18.9 12.065C17.7844 15.835 14.3062 18.37 10.3687 18.37Z" fill="#FF6600"/>
  <path d="M19.5563 14.925L18.4406 12.065L15.6188 13.365L15.225 12.455L18.9656 10.765L20.475 14.6L19.5563 14.925Z" fill="#FF6600"/>
</svg>
