<svg width="12" height="12" viewBox="0 0 12 12" fill="none" xmlns="http://www.w3.org/2000/svg">
  <path d="M8.19616 7.1208C9.63663 5.08673 9.15487 2.27014 7.1208 0.830012C5.08673 -0.610115 2.27014 -0.128696 0.830012 1.90572C-0.610115 3.93979 -0.128696 6.75604 1.90572 8.19616C3.35755 9.22404 5.27703 9.30319 6.80834 8.39885L10.1356 11.7061C10.4949 12.0843 11.0926 12.0995 11.4708 11.7402C11.849 11.3813 11.8641 10.7836 11.5052 10.4054C11.4938 10.3933 11.4828 10.3823 11.4708 10.371L8.19616 7.1208ZM4.51033 7.42913C2.90297 7.42947 1.5998 6.12734 1.59877 4.51997C1.59842 2.9126 2.90056 1.60943 4.50827 1.60875C6.11357 1.60806 7.41605 2.90813 7.41915 4.51343C7.4219 6.12114 6.12045 7.42638 4.5124 7.42913C4.51171 7.42913 4.51137 7.42913 4.51033 7.42913Z" fill="#3D5164"/>
</svg>
